<svg xmlns="http://www.w3.org/2000/svg" viewBox="0 0 1240 800" font-family="-apple-system,Segoe UI,Roboto,Helvetica,Arial,sans-serif">
<rect x="0" y="0" width="1240" height="800" fill="#ffffff"/>
<defs><marker id="mP" markerWidth="9" markerHeight="9" refX="7" refY="4.5" orient="auto"><path d="M0,0 L9,4.5 L0,9 z" fill="#6b2fb3"/></marker><marker id="mR" markerWidth="9" markerHeight="9" refX="7" refY="4.5" orient="auto"><path d="M0,0 L9,4.5 L0,9 z" fill="#c0392b"/></marker><marker id="mB" markerWidth="9" markerHeight="9" refX="7" refY="4.5" orient="auto"><path d="M0,0 L9,4.5 L0,9 z" fill="#2f6fdb"/></marker><marker id="mK" markerWidth="9" markerHeight="9" refX="7" refY="4.5" orient="auto"><path d="M0,0 L9,4.5 L0,9 z" fill="#333"/></marker></defs>
<rect x="40" y="10" width="1160" height="34" rx="8" fill="#0f1723" stroke="#0f1723" stroke-width="1.4"/>
<text x="620" y="27.0" text-anchor="middle" dominant-baseline="middle" font-size="13.5" font-weight="700" fill="#ffffff">MFT ↔ Integration Platform — the Boomi MFT Connector (event-driven file transfer · control &amp; data channels)</text>
<rect x="40" y="60" width="250" height="620" rx="8" fill="#eef2f7" stroke="#9fb0c6" stroke-width="1.4"/>
<text x="54" y="84" font-size="12" font-weight="700" fill="#2b3a55" text-anchor="start">EXTERNAL CONNECTIONS</text>
<rect x="56" y="100" width="218" height="66" rx="8" fill="#ffffff" stroke="#6b2fb3" stroke-width="1.4"/>
<text x="165.0" y="126.2" text-anchor="middle" dominant-baseline="middle" font-size="10.5" font-weight="700" fill="#12161c">Partner / OGD servers</text>
<text x="165.0" y="139.8" text-anchor="middle" dominant-baseline="middle" font-size="10.5" font-weight="700" fill="#12161c">(SFTP / FTPS / FTP)</text>
<rect x="56" y="182" width="218" height="66" rx="8" fill="#ffffff" stroke="#6b2fb3" stroke-width="1.4"/>
<text x="165.0" y="208.2" text-anchor="middle" dominant-baseline="middle" font-size="10.5" font-weight="700" fill="#12161c">Cloud storage</text>
<text x="165.0" y="221.8" text-anchor="middle" dominant-baseline="middle" font-size="10.5" font-weight="700" fill="#12161c">(S3 · Azure Blob)</text>
<text x="54" y="300" font-size="12" font-weight="700" fill="#2b3a55" text-anchor="start">REMOTE LOCATIONS</text>
<rect x="56" y="316" width="218" height="66" rx="8" fill="#ffffff" stroke="#8fa9dd" stroke-width="1.4"/>
<text x="165.0" y="349.0" text-anchor="middle" dominant-baseline="middle" font-size="10.5" font-weight="700" fill="#12161c">Sites · agents · offices</text>
<rect x="320" y="60" width="560" height="620" rx="12" fill="#fbeef1" stroke="#e0a9bd" stroke-width="1.4"/>
<text x="600" y="86" font-size="14" font-weight="700" fill="#8a2b4a" text-anchor="middle">Boomi Enterprise Platform (iPaaS)</text>
<rect x="336" y="104" width="250" height="380" rx="10" fill="#f6e4ea" stroke="#cf6d8c" stroke-width="1.4"/>
<text x="350" y="128" font-size="11" font-weight="700" fill="#8a2b4a" text-anchor="start">MANAGED FILE TRANSFER</text>
<rect x="352" y="140" width="218" height="52" rx="8" fill="#ffffff" stroke="#cf6d8c" stroke-width="1.4"/>
<text x="461.0" y="166.0" text-anchor="middle" dominant-baseline="middle" font-size="11" font-weight="700" fill="#12161c">MFT API</text>
<rect x="352" y="204" width="218" height="60" rx="8" fill="#ffffff" stroke="#cf6d8c" stroke-width="1.4"/>
<text x="461.0" y="234.0" text-anchor="middle" dominant-baseline="middle" font-size="11" font-weight="700" fill="#12161c">File Transfer Flows</text>
<rect x="352" y="276" width="218" height="56" rx="8" fill="#ffffff" stroke="#cf6d8c" stroke-width="1.4"/>
<text x="461.0" y="304.0" text-anchor="middle" dominant-baseline="middle" font-size="11" font-weight="700" fill="#12161c">File Transfers</text>
<rect x="352" y="344" width="218" height="60" rx="8" fill="#f6e4ea" stroke="#cf6d8c" stroke-width="1.4"/>
<text x="461.0" y="367.2" text-anchor="middle" dominant-baseline="middle" font-size="10.5" font-weight="700" fill="#12161c">MFT Runtime</text>
<text x="461.0" y="380.8" text-anchor="middle" dominant-baseline="middle" font-size="10.5" font-weight="700" fill="#12161c">(optional on-prem)</text>
<rect x="600" y="104" width="264" height="380" rx="10" fill="#f6e4ea" stroke="#cf6d8c" stroke-width="1.4"/>
<text x="614" y="128" font-size="11" font-weight="700" fill="#8a2b4a" text-anchor="start">INTEGRATION PLATFORM</text>
<rect x="616" y="140" width="232" height="56" rx="8" fill="#ffffff" stroke="#cf6d8c" stroke-width="1.4"/>
<text x="732.0" y="161.2" text-anchor="middle" dominant-baseline="middle" font-size="10.5" font-weight="700" fill="#12161c">Event Trigger</text>
<text x="732.0" y="174.8" text-anchor="middle" dominant-baseline="middle" font-size="10.5" font-weight="700" fill="#12161c">(schedule · event)</text>
<rect x="616" y="212" width="232" height="60" rx="8" fill="#ffffff" stroke="#cf6d8c" stroke-width="1.4"/>
<text x="732.0" y="242.0" text-anchor="middle" dominant-baseline="middle" font-size="11" font-weight="700" fill="#12161c">Boomi Process</text>
<rect x="616" y="300" width="232" height="64" rx="8" fill="#fde3c2" stroke="#d1791b" stroke-width="1.4"/>
<text x="732.0" y="325.0" text-anchor="middle" dominant-baseline="middle" font-size="11" font-weight="700" fill="#12161c">Boomi MFT Connector</text>
<text x="732.0" y="339.0" text-anchor="middle" dominant-baseline="middle" font-size="11" font-weight="700" fill="#12161c">(MFT)</text>
<text x="616" y="404" font-size="9" font-weight="600" fill="#8a2b4a" text-anchor="start">Boomi Process orchestrates &amp;</text>
<text x="616" y="418" font-size="9" font-weight="600" fill="#8a2b4a" text-anchor="start">reports on transfers (REST API)</text>
<rect x="910" y="60" width="290" height="620" rx="8" fill="#eef2f7" stroke="#9fb0c6" stroke-width="1.4"/>
<text x="924" y="84" font-size="12" font-weight="700" fill="#2b3a55" text-anchor="start">ENTERPRISE / INTERNAL ESTATE</text>
<rect x="926" y="100" width="258" height="72" rx="8" fill="#dfe8fb" stroke="#8fa9dd" stroke-width="1.4"/>
<text x="1055.0" y="129.2" text-anchor="middle" dominant-baseline="middle" font-size="10.5" font-weight="700" fill="#12161c">HoD Applications</text>
<text x="1055.0" y="142.8" text-anchor="middle" dominant-baseline="middle" font-size="10.5" font-weight="700" fill="#12161c">(AWS · Azure · Crown · Fujitsu)</text>
<rect x="926" y="190" width="258" height="72" rx="8" fill="#dfe8fb" stroke="#8fa9dd" stroke-width="1.4"/>
<text x="1055.0" y="219.2" text-anchor="middle" dominant-baseline="middle" font-size="10.5" font-weight="700" fill="#12161c">Business apps</text>
<text x="1055.0" y="232.8" text-anchor="middle" dominant-baseline="middle" font-size="10.5" font-weight="700" fill="#12161c">(CRM · ERP · BI)</text>
<rect x="926" y="280" width="258" height="66" rx="8" fill="#dfe8fb" stroke="#8fa9dd" stroke-width="1.4"/>
<text x="1055.0" y="313.0" text-anchor="middle" dominant-baseline="middle" font-size="10.5" font-weight="700" fill="#12161c">File repositories</text>
<path d="M274,133.0 L352,296.0" fill="none" stroke="#6b2fb3" stroke-width="1.8" marker-end="url(#mP)"/>
<text x="313.0" y="210.5" text-anchor="middle" font-size="9.5" fill="#3d4653" style="paint-order:stroke;stroke:#ffffff;stroke-width:3px">source data channel</text>
<path d="M352,314.0 L274,215.0" fill="none" stroke="#c0392b" stroke-width="1.8" marker-end="url(#mR)"/>
<text x="313.0" y="260.5" text-anchor="middle" font-size="9.5" fill="#3d4653" style="paint-order:stroke;stroke:#ffffff;stroke-width:3px">target data channel</text>
<path d="M616,168.0 L570,166.0" fill="none" stroke="#333" stroke-width="1.8" marker-end="url(#mK)" stroke-dasharray="6 4"/>
<text x="593.0" y="163.0" text-anchor="middle" font-size="9.5" fill="#3d4653" style="paint-order:stroke;stroke:#ffffff;stroke-width:3px">control channel</text>
<path d="M732.0,272 L732.0,300" fill="none" stroke="#c0392b" stroke-width="1.8" marker-end="url(#mR)"/>
<text x="732.0" y="282.0" text-anchor="middle" font-size="9.5" fill="#3d4653" style="paint-order:stroke;stroke:#ffffff;stroke-width:3px">invoke</text>
<path d="M616,332.0 L570,234.0" fill="none" stroke="#c0392b" stroke-width="1.8" marker-end="url(#mR)"/>
<text x="593.0" y="279.0" text-anchor="middle" font-size="9.5" fill="#3d4653" style="paint-order:stroke;stroke:#ffffff;stroke-width:3px">Boomi MFT Connector:</text>
<text x="593.0" y="290.0" text-anchor="middle" font-size="9.5" fill="#3d4653" style="paint-order:stroke;stroke:#ffffff;stroke-width:3px">process invokes MFT flows</text>
<path d="M461.0,404 L461.0,604 L1010,604 L1010,346" fill="none" stroke="#6b2fb3" stroke-width="1.8" marker-end="url(#mP)"/>
<text x="1010" y="598" text-anchor="middle" font-size="9.5" fill="#3d4653" style="paint-order:stroke;stroke:#ffffff;stroke-width:3px">direct file exchange</text>
<path d="M848,236.0 L926,226.0" fill="none" stroke="#c0392b" stroke-width="1.8" marker-end="url(#mR)"/>
<text x="887.0" y="227.0" text-anchor="middle" font-size="9.5" fill="#3d4653" style="paint-order:stroke;stroke:#ffffff;stroke-width:3px">integrate</text>
<path d="M732.0,364 L732.0,634 L1120,634 L1120,346" fill="none" stroke="#2f6fdb" stroke-width="1.8" marker-end="url(#mB)"/>
<text x="1120" y="628" text-anchor="middle" font-size="9.5" fill="#3d4653" style="paint-order:stroke;stroke:#ffffff;stroke-width:3px">orchestration &amp; reporting (REST API)</text>
<path d="M274,349.0 L352,318.0" fill="none" stroke="#6b2fb3" stroke-width="1.8" marker-end="url(#mP)"/>
<rect x="40" y="690" width="1160" height="96" rx="8" fill="#ffffff" stroke="#c9ccd2" stroke-width="1.4"/>
<text x="54" y="712" font-size="11" font-weight="700" fill="#33475b" text-anchor="start">LEGEND</text>
<path d="M64,736 L98,736" stroke="#6b2fb3" stroke-width="2.4"/>
<text x="106" y="740" font-size="10" font-weight="600" fill="#3d4653" text-anchor="start">Source data channel (inbound file)</text>
<path d="M64,762 L98,762" stroke="#c0392b" stroke-width="2.4"/>
<text x="106" y="766" font-size="10" font-weight="600" fill="#3d4653" text-anchor="start">Target data channel (outbound file)</text>
<path d="M360,736 L394,736" stroke="#333" stroke-width="2.4" stroke-dasharray="6 4"/>
<text x="402" y="740" font-size="10" font-weight="600" fill="#3d4653" text-anchor="start">MFT control channel (event / schedule)</text>
<path d="M360,762 L394,762" stroke="#2f6fdb" stroke-width="2.4"/>
<text x="402" y="766" font-size="10" font-weight="600" fill="#3d4653" text-anchor="start">Programmatic control &amp; reporting over REST API</text>
<text x="700" y="730" font-size="10" font-weight="700" fill="#8a2b4a" text-anchor="start">Key point: MFT is not a silo. The Integration Platform triggers &amp;</text>
<text x="700" y="746" font-size="10" font-weight="600" fill="#8a2b4a" text-anchor="start">orchestrates transfers via the Boomi MFT Connector; MFT moves the</text>
<text x="700" y="762" font-size="10" font-weight="600" fill="#8a2b4a" text-anchor="start">bytes over SFTP/FTPS and exposes status/reporting APIs.</text>
<text x="700" y="778" font-size="10" font-weight="600" fill="#8a2b4a" text-anchor="start">Same platform · same governance · one audit trail.</text>
</svg>