<svg xmlns="http://www.w3.org/2000/svg" viewBox="0 0 1520 1120" font-family="Segoe UI,-apple-system,Roboto,Helvetica,Arial,sans-serif">
<rect x="0" y="0" width="1520" height="1120" fill="#ffffff"/>
<defs><marker id="be" markerWidth="10" markerHeight="10" refX="8" refY="5" orient="auto"><path d="M0,0 L9,5 L0,10 z" fill="#3f6fc4"/></marker><marker id="bs" markerWidth="10" markerHeight="10" refX="1" refY="5" orient="auto"><path d="M9,0 L0,5 L9,10 z" fill="#3f6fc4"/></marker><marker id="pe" markerWidth="10" markerHeight="10" refX="8" refY="5" orient="auto"><path d="M0,0 L9,5 L0,10 z" fill="#8073a8"/></marker><marker id="ps" markerWidth="10" markerHeight="10" refX="1" refY="5" orient="auto"><path d="M9,0 L0,5 L9,10 z" fill="#8073a8"/></marker></defs>
<rect x="150" y="170" width="1240" height="470" rx="2" fill="#ffffff" stroke="#8a8a8a" stroke-width="1.3"/>
<text x="172" y="208" font-size="15" font-weight="700" fill="#33373b">External estate</text>
<rect x="150" y="740" width="1240" height="330" rx="2" fill="#ffffff" stroke="#8a8a8a" stroke-width="1.3"/>
<text x="172" y="778" font-size="15" font-weight="700" fill="#33373b">Internal estate</text>
<path d="M92,690 L1428,690" stroke="#9a9a9a" stroke-width="1.4" stroke-dasharray="3 5"/>
<rect x="235" y="235" width="200" height="170" rx="2" fill="#f5e7d0" stroke="#cca06a" stroke-width="1.3"/>
<text x="250" y="262" font-size="13" font-weight="700" fill="#33373b">External Consumers</text>
<rect x="262" y="290" width="146" height="96" rx="2" fill="#d9e3f2" stroke="#9fb0cc" stroke-width="1.3"/>
<g stroke="#5b6b86" stroke-width="1.2" fill="#eef2f8"><rect x="386" y="298" width="16" height="13" rx="1"/><rect x="382" y="300" width="7" height="3.4"/><rect x="382" y="305.5" width="7" height="3.4"/></g>
<text x="335.0" y="330.0" text-anchor="middle" dominant-baseline="middle" font-size="13" font-weight="600" fill="#20242a">3rd Party Consumers</text>
<text x="335.0" y="346.0" text-anchor="middle" dominant-baseline="middle" font-size="13" font-weight="600" fill="#20242a">/ OGDs</text>
<rect x="470" y="235" width="210" height="170" rx="2" fill="#f5e7d0" stroke="#cca06a" stroke-width="1.3"/>
<text x="485" y="262" font-size="13" font-weight="700" fill="#33373b">Digital services</text>
<rect x="505" y="292" width="140" height="92" rx="2" fill="#d9e3f2" stroke="#9fb0cc" stroke-width="1.3"/>
<g stroke="#5b6b86" stroke-width="1.2" fill="#eef2f8"><rect x="623" y="300" width="16" height="13" rx="1"/><rect x="619" y="302" width="7" height="3.4"/><rect x="619" y="307.5" width="7" height="3.4"/></g>
<text x="575.0" y="338.0" text-anchor="middle" dominant-baseline="middle" font-size="13" font-weight="600" fill="#20242a">MDTP</text>
<rect x="715" y="235" width="610" height="170" rx="2" fill="#f2ddbf" stroke="#cca06a" stroke-width="1.3"/>
<text x="730" y="262" font-size="13" font-weight="700" fill="#33373b">SaaS systems (native iPaaS)</text>
<rect x="730" y="282" width="138" height="104" rx="2" fill="#d9e3f2" stroke="#9fb0cc" stroke-width="1.3"/>
<g stroke="#5b6b86" stroke-width="1.2" fill="#eef2f8"><rect x="846" y="290" width="16" height="13" rx="1"/><rect x="842" y="292" width="7" height="3.4"/><rect x="842" y="297.5" width="7" height="3.4"/></g>
<text x="799.0" y="318.0" text-anchor="middle" dominant-baseline="middle" font-size="13" font-weight="600" fill="#20242a">ETMP</text>
<text x="799.0" y="334.0" text-anchor="middle" dominant-baseline="middle" font-size="13" font-weight="600" fill="#20242a">S4H</text>
<text x="799.0" y="350.0" text-anchor="middle" dominant-baseline="middle" font-size="11" font-weight="600" fill="#5a6472" font-style="italic">Native iPaaS</text>
<rect x="882" y="282" width="148" height="104" rx="2" fill="#d9e3f2" stroke="#9fb0cc" stroke-width="1.3"/>
<g stroke="#5b6b86" stroke-width="1.2" fill="#eef2f8"><rect x="1008" y="290" width="16" height="13" rx="1"/><rect x="1004" y="292" width="7" height="3.4"/><rect x="1004" y="297.5" width="7" height="3.4"/></g>
<text x="956.0" y="318.0" text-anchor="middle" dominant-baseline="middle" font-size="13" font-weight="600" fill="#20242a">CRM System</text>
<text x="956.0" y="334.0" text-anchor="middle" dominant-baseline="middle" font-size="13" font-weight="600" fill="#20242a">CF / MSD</text>
<text x="956.0" y="350.0" text-anchor="middle" dominant-baseline="middle" font-size="11" font-weight="600" fill="#5a6472" font-style="italic">Native iPaaS</text>
<rect x="1044" y="282" width="138" height="104" rx="2" fill="#d9e3f2" stroke="#9fb0cc" stroke-width="1.3"/>
<g stroke="#5b6b86" stroke-width="1.2" fill="#eef2f8"><rect x="1160" y="290" width="16" height="13" rx="1"/><rect x="1156" y="292" width="7" height="3.4"/><rect x="1156" y="297.5" width="7" height="3.4"/></g>
<text x="1113.0" y="318.0" text-anchor="middle" dominant-baseline="middle" font-size="13" font-weight="600" fill="#20242a">Workflow</text>
<text x="1113.0" y="334.0" text-anchor="middle" dominant-baseline="middle" font-size="13" font-weight="600" fill="#20242a">Pega</text>
<text x="1113.0" y="350.0" text-anchor="middle" dominant-baseline="middle" font-size="11" font-weight="600" fill="#5a6472" font-style="italic">Native iPaaS</text>
<rect x="1196" y="282" width="118" height="104" rx="2" fill="#d9e3f2" stroke="#9fb0cc" stroke-width="1.3"/>
<g stroke="#5b6b86" stroke-width="1.2" fill="#eef2f8"><rect x="1292" y="290" width="16" height="13" rx="1"/><rect x="1288" y="292" width="7" height="3.4"/><rect x="1288" y="297.5" width="7" height="3.4"/></g>
<text x="1255.0" y="326.0" text-anchor="middle" dominant-baseline="middle" font-size="13" font-weight="600" fill="#20242a">B&amp;amp;T System</text>
<text x="1255.0" y="342.0" text-anchor="middle" dominant-baseline="middle" font-size="13" font-weight="600" fill="#20242a">CDS</text>
<rect x="420" y="460" width="470" height="150" rx="16" fill="#ffffff" stroke="#4a72c4" stroke-width="2.2"/>
<g transform="translate(432,478) scale(1.0)" fill="#ffffff" stroke="#6f7d93" stroke-width="1.6"><path d="M6,17 a7,7 0 0,1 1,-13 a9,9 0 0,1 16,2 a6,6 0 0,1 -1,11 z"/></g>
<text x="470" y="500" font-size="15" font-weight="700" fill="#33373b">iPaaS Platform</text>
<g fill="none" stroke="#2f9e91" stroke-width="2"><ellipse cx="444" cy="556" rx="15" ry="6.0"/><ellipse cx="444" cy="556" rx="15" ry="6.0" transform="rotate(60 444 556)"/><ellipse cx="444" cy="556" rx="15" ry="6.0" transform="rotate(120 444 556)"/></g><circle cx="444" cy="556" r="3.2" fill="#2f9e91"/>
<text x="468" y="562" font-size="17" font-weight="600" fill="#3a4048">Boomi</text>
<rect x="600" y="790" width="380" height="95" rx="16" fill="#ffffff" stroke="#4a72c4" stroke-width="2.2"/>
<g fill="none" stroke="#2f9e91" stroke-width="2"><ellipse cx="650" cy="838" rx="15" ry="6.0"/><ellipse cx="650" cy="838" rx="15" ry="6.0" transform="rotate(60 650 838)"/><ellipse cx="650" cy="838" rx="15" ry="6.0" transform="rotate(120 650 838)"/></g><circle cx="650" cy="838" r="3.2" fill="#2f9e91"/>
<text x="676" y="846" font-size="17" font-weight="600" fill="#3a4048">Boomi</text>
<text x="772" y="846" font-size="15" font-weight="700" fill="#33373b">Internal Runtime</text>
<rect x="235" y="920" width="205" height="140" rx="2" fill="#f5e7d0" stroke="#cca06a" stroke-width="1.3"/>
<text x="250" y="947" font-size="13" font-weight="700" fill="#33373b">AWS</text>
<rect x="263" y="965" width="150" height="80" rx="2" fill="#d9e3f2" stroke="#9fb0cc" stroke-width="1.3"/>
<g stroke="#5b6b86" stroke-width="1.2" fill="#eef2f8"><rect x="391" y="973" width="16" height="13" rx="1"/><rect x="387" y="975" width="7" height="3.4"/><rect x="387" y="980.5" width="7" height="3.4"/></g>
<text x="338.0" y="997.0" text-anchor="middle" dominant-baseline="middle" font-size="13" font-weight="600" fill="#20242a">HoD</text>
<text x="338.0" y="1013.0" text-anchor="middle" dominant-baseline="middle" font-size="13" font-weight="600" fill="#20242a">Application</text>
<rect x="475" y="920" width="205" height="140" rx="2" fill="#f5e7d0" stroke="#cca06a" stroke-width="1.3"/>
<text x="490" y="947" font-size="13" font-weight="700" fill="#33373b">Azure</text>
<rect x="503" y="965" width="150" height="80" rx="2" fill="#d9e3f2" stroke="#9fb0cc" stroke-width="1.3"/>
<g stroke="#5b6b86" stroke-width="1.2" fill="#eef2f8"><rect x="631" y="973" width="16" height="13" rx="1"/><rect x="627" y="975" width="7" height="3.4"/><rect x="627" y="980.5" width="7" height="3.4"/></g>
<text x="578.0" y="997.0" text-anchor="middle" dominant-baseline="middle" font-size="13" font-weight="600" fill="#20242a">HoD</text>
<text x="578.0" y="1013.0" text-anchor="middle" dominant-baseline="middle" font-size="13" font-weight="600" fill="#20242a">Application</text>
<rect x="715" y="920" width="205" height="140" rx="2" fill="#f5e7d0" stroke="#cca06a" stroke-width="1.3"/>
<text x="730" y="947" font-size="13" font-weight="700" fill="#33373b">Crown Hosting</text>
<rect x="743" y="965" width="150" height="80" rx="2" fill="#d9e3f2" stroke="#9fb0cc" stroke-width="1.3"/>
<g stroke="#5b6b86" stroke-width="1.2" fill="#eef2f8"><rect x="871" y="973" width="16" height="13" rx="1"/><rect x="867" y="975" width="7" height="3.4"/><rect x="867" y="980.5" width="7" height="3.4"/></g>
<text x="818.0" y="997.0" text-anchor="middle" dominant-baseline="middle" font-size="13" font-weight="600" fill="#20242a">HoD</text>
<text x="818.0" y="1013.0" text-anchor="middle" dominant-baseline="middle" font-size="13" font-weight="600" fill="#20242a">Application</text>
<rect x="955" y="920" width="205" height="140" rx="2" fill="#f5e7d0" stroke="#cca06a" stroke-width="1.3"/>
<text x="970" y="947" font-size="13" font-weight="700" fill="#33373b">Fujitsu</text>
<rect x="983" y="965" width="150" height="80" rx="2" fill="#d9e3f2" stroke="#9fb0cc" stroke-width="1.3"/>
<g stroke="#5b6b86" stroke-width="1.2" fill="#eef2f8"><rect x="1111" y="973" width="16" height="13" rx="1"/><rect x="1107" y="975" width="7" height="3.4"/><rect x="1107" y="980.5" width="7" height="3.4"/></g>
<text x="1058.0" y="997.0" text-anchor="middle" dominant-baseline="middle" font-size="13" font-weight="600" fill="#20242a">HoD</text>
<text x="1058.0" y="1013.0" text-anchor="middle" dominant-baseline="middle" font-size="13" font-weight="600" fill="#20242a">Application</text>
<path d="M335.0,386 L335.0,414 L470,455 L470,460" fill="none" stroke="#3f6fc4" stroke-width="1.5" marker-start="url(#bs)" marker-end="url(#be)"/>
<path d="M575.0,384 L575.0,412 L540,455 L540,460" fill="none" stroke="#3f6fc4" stroke-width="1.5" marker-start="url(#bs)" marker-end="url(#be)"/>
<path d="M799.0,386 L799.0,414 L610,455 L610,460" fill="none" stroke="#3f6fc4" stroke-width="1.5" marker-start="url(#bs)" marker-end="url(#be)"/>
<path d="M956.0,386 L956.0,414 L680,455 L680,460" fill="none" stroke="#3f6fc4" stroke-width="1.5" marker-start="url(#bs)" marker-end="url(#be)"/>
<path d="M1113.0,386 L1113.0,414 L750,455 L750,460" fill="none" stroke="#3f6fc4" stroke-width="1.5" marker-start="url(#bs)" marker-end="url(#be)"/>
<path d="M1255.0,386 L1255.0,414 L820,455 L820,460" fill="none" stroke="#3f6fc4" stroke-width="1.5" marker-start="url(#bs)" marker-end="url(#be)"/>
<path d="M655,610 L655,660 L790,660 L790,790" fill="none" stroke="#3f6fc4" stroke-width="1.5" marker-start="url(#bs)" marker-end="url(#be)"/>
<path d="M790,885 L790,905 L338.0,905 L338.0,965" fill="none" stroke="#3f6fc4" stroke-width="1.5" marker-start="url(#bs)" marker-end="url(#be)"/>
<path d="M790,885 L790,905 L578.0,905 L578.0,965" fill="none" stroke="#3f6fc4" stroke-width="1.5" marker-start="url(#bs)" marker-end="url(#be)"/>
<path d="M790,885 L790,905 L818.0,905 L818.0,965" fill="none" stroke="#3f6fc4" stroke-width="1.5" marker-start="url(#bs)" marker-end="url(#be)"/>
<path d="M790,885 L790,905 L1058.0,905 L1058.0,965" fill="none" stroke="#3f6fc4" stroke-width="1.5" marker-start="url(#bs)" marker-end="url(#be)"/>
<path d="M500,610 L500,700 L337,700 L337,965" fill="none" stroke="#8073a8" stroke-width="1.5" marker-start="url(#ps)" marker-end="url(#pe)"/>
<path d="M840,610 L840,700 L1057,700 L1057,965" fill="none" stroke="#8073a8" stroke-width="1.5" marker-start="url(#ps)" marker-end="url(#pe)"/>
</svg>