<svg viewBox="0 0 1260 582" xmlns="http://www.w3.org/2000/svg" font-family="-apple-system,Segoe UI,Roboto,Helvetica,Arial,sans-serif" role="img" aria-label="Intelligrator phased roadmap: 6 phases over 60 weeks, MVP live at week 14">
<rect width="1260" height="582" fill="#ffffff"/>
<text x="0" y="26" font-size="19" font-weight="700" fill="#0F1723">Intelligrator — Plan on a Page</text>
<text x="0" y="46" font-size="12" fill="#7A8493">6 phases · 60 weeks · MVP live at week 14 · 65 stories · 384 points</text><line x1="196.0" y1="76" x2="196.0" y2="434" stroke="#EEF1F4" stroke-width="1"/><text x="196.0" y="70" font-size="10" fill="#9AA4B0" text-anchor="middle">W1</text><line x1="264.3" y1="76" x2="264.3" y2="434" stroke="#EEF1F4" stroke-width="1"/><text x="264.3" y="70" font-size="10" fill="#9AA4B0" text-anchor="middle">W5</text><line x1="332.5" y1="76" x2="332.5" y2="434" stroke="#EEF1F4" stroke-width="1"/><text x="332.5" y="70" font-size="10" fill="#9AA4B0" text-anchor="middle">W9</text><line x1="400.8" y1="76" x2="400.8" y2="434" stroke="#EEF1F4" stroke-width="1"/><text x="400.8" y="70" font-size="10" fill="#9AA4B0" text-anchor="middle">W13</text><line x1="469.1" y1="76" x2="469.1" y2="434" stroke="#EEF1F4" stroke-width="1"/><text x="469.1" y="70" font-size="10" fill="#9AA4B0" text-anchor="middle">W17</text><line x1="537.3" y1="76" x2="537.3" y2="434" stroke="#EEF1F4" stroke-width="1"/><text x="537.3" y="70" font-size="10" fill="#9AA4B0" text-anchor="middle">W21</text><line x1="605.6" y1="76" x2="605.6" y2="434" stroke="#EEF1F4" stroke-width="1"/><text x="605.6" y="70" font-size="10" fill="#9AA4B0" text-anchor="middle">W25</text><line x1="673.9" y1="76" x2="673.9" y2="434" stroke="#EEF1F4" stroke-width="1"/><text x="673.9" y="70" font-size="10" fill="#9AA4B0" text-anchor="middle">W29</text><line x1="742.1" y1="76" x2="742.1" y2="434" stroke="#EEF1F4" stroke-width="1"/><text x="742.1" y="70" font-size="10" fill="#9AA4B0" text-anchor="middle">W33</text><line x1="810.4" y1="76" x2="810.4" y2="434" stroke="#EEF1F4" stroke-width="1"/><text x="810.4" y="70" font-size="10" fill="#9AA4B0" text-anchor="middle">W37</text><line x1="878.7" y1="76" x2="878.7" y2="434" stroke="#EEF1F4" stroke-width="1"/><text x="878.7" y="70" font-size="10" fill="#9AA4B0" text-anchor="middle">W41</text><line x1="946.9" y1="76" x2="946.9" y2="434" stroke="#EEF1F4" stroke-width="1"/><text x="946.9" y="70" font-size="10" fill="#9AA4B0" text-anchor="middle">W45</text><line x1="1015.2" y1="76" x2="1015.2" y2="434" stroke="#EEF1F4" stroke-width="1"/><text x="1015.2" y="70" font-size="10" fill="#9AA4B0" text-anchor="middle">W49</text><line x1="1083.5" y1="76" x2="1083.5" y2="434" stroke="#EEF1F4" stroke-width="1"/><text x="1083.5" y="70" font-size="10" fill="#9AA4B0" text-anchor="middle">W53</text><line x1="1151.7" y1="76" x2="1151.7" y2="434" stroke="#EEF1F4" stroke-width="1"/><text x="1151.7" y="70" font-size="10" fill="#9AA4B0" text-anchor="middle">W57</text><line x1="1220.0" y1="76" x2="1220.0" y2="434" stroke="#EEF1F4" stroke-width="1"/><text x="1220.0" y="70" font-size="10" fill="#9AA4B0" text-anchor="middle">W61</text><text x="0" y="113" font-size="12.5" font-weight="700" fill="#12161C">P0 · Foundations</text><text x="0" y="129" font-size="10.5" fill="#8B94A1">Platform enablement</text><rect x="196" y="99" width="1024" height="32" rx="6" fill="#F5F7F9"/><rect x="196.0" y="99" width="68.3" height="32" rx="6" fill="#5A6472"/><text x="206.0" y="120" font-size="11.5" font-weight="600" fill="#ffffff">W1–4 · technical enablers</text><text x="0" y="169" font-size="12.5" font-weight="700" fill="#12161C">P1 · MVP · MFT</text><text x="0" y="185" font-size="10.5" fill="#8B94A1">The one that proves it</text><rect x="196" y="155" width="1024" height="32" rx="6" fill="#F5F7F9"/><rect x="230.1" y="155" width="204.8" height="32" rx="6" fill="#0B5FFF"/><text x="240.1" y="176" font-size="11.5" font-weight="600" fill="#ffffff">W3–14 · 32 stories · 156 pts</text><text x="0" y="225" font-size="12.5" font-weight="700" fill="#12161C">P2 · API build &amp; mashup</text><text x="0" y="241" font-size="10.5" fill="#8B94A1">Contract in, API out</text><rect x="196" y="211" width="1024" height="32" rx="6" fill="#F5F7F9"/><rect x="434.9" y="211" width="238.9" height="32" rx="6" fill="#7A3DB8"/><text x="444.9" y="232" font-size="11.5" font-weight="600" fill="#ffffff">W15–28 · 14 stories · 105 pts</text><text x="0" y="281" font-size="12.5" font-weight="700" fill="#12161C">P3 · SSO &amp; governance</text><text x="0" y="297" font-size="10.5" fill="#8B94A1">Production-grade</text><rect x="196" y="267" width="1024" height="32" rx="6" fill="#F5F7F9"/><rect x="673.9" y="267" width="170.7" height="32" rx="6" fill="#0F7A5A"/><text x="683.9" y="288" font-size="11.5" font-weight="600" fill="#ffffff">W29–38 · 9 stories · 44 pts</text><text x="0" y="337" font-size="12.5" font-weight="700" fill="#12161C">P4 · Event-driven</text><text x="0" y="353" font-size="10.5" fill="#8B94A1">The third pattern family</text><rect x="196" y="323" width="1024" height="32" rx="6" fill="#F5F7F9"/><rect x="844.5" y="323" width="170.7" height="32" rx="6" fill="#B5761B"/><text x="854.5" y="344" font-size="11.5" font-weight="600" fill="#ffffff">W39–48 · 4 stories · 34 pts</text><text x="0" y="393" font-size="12.5" font-weight="700" fill="#12161C">P5 · Optimise &amp; retire</text><text x="0" y="409" font-size="10.5" fill="#8B94A1">Retire the legacy tail</text><rect x="196" y="379" width="1024" height="32" rx="6" fill="#F5F7F9"/><rect x="1015.2" y="379" width="204.8" height="32" rx="6" fill="#B3261E"/><text x="1025.2" y="400" font-size="11.5" font-weight="600" fill="#ffffff">W49–60 · 6 stories · 45 pts</text><line x1="196" y1="466" x2="1220" y2="466" stroke="#DFE4EA" stroke-width="1"/><text x="0" y="470" font-size="11.5" font-weight="700" fill="#12161C">Milestones</text><polygon points="247.2,460 253.2,466 247.2,472 241.2,466" fill="#0F1723"/><text x="247.2" y="440" font-size="10.5" font-weight="700" fill="#0F1723" text-anchor="middle">M0 · W4</text><text x="247.2" y="452" font-size="10" fill="#5A6472" text-anchor="middle">Foundations ready</text><polygon points="417.9,460 423.9,466 417.9,472 411.9,466" fill="#0F1723"/><text x="417.9" y="486" font-size="10.5" font-weight="700" fill="#0F1723" text-anchor="middle">M1 · W14</text><text x="417.9" y="498" font-size="10" fill="#5A6472" text-anchor="middle">MVP live</text><polygon points="554.4,460 560.4,466 554.4,472 548.4,466" fill="#0F1723"/><text x="554.4" y="440" font-size="10.5" font-weight="700" fill="#0F1723" text-anchor="middle">M2 · W22</text><text x="554.4" y="452" font-size="10" fill="#5A6472" text-anchor="middle">Contract-to-API build</text><polygon points="656.8,460 662.8,466 656.8,472 650.8,466" fill="#0F1723"/><text x="656.8" y="486" font-size="10.5" font-weight="700" fill="#0F1723" text-anchor="middle">M3 · W28</text><text x="656.8" y="498" font-size="10" fill="#5A6472" text-anchor="middle">First mashup in production</text><polygon points="827.5,460 833.5,466 827.5,472 821.5,466" fill="#0F1723"/><text x="827.5" y="440" font-size="10.5" font-weight="700" fill="#0F1723" text-anchor="middle">M4 · W38</text><text x="827.5" y="452" font-size="10" fill="#5A6472" text-anchor="middle">SSO cutover · production at scale</text><polygon points="998.1,460 1004.1,466 998.1,472 992.1,466" fill="#0F1723"/><text x="998.1" y="486" font-size="10.5" font-weight="700" fill="#0F1723" text-anchor="middle">M5 · W48</text><text x="998.1" y="498" font-size="10" fill="#5A6472" text-anchor="middle">Event-driven onboarding</text><polygon points="1202.9,460 1208.9,466 1202.9,472 1196.9,466" fill="#0F1723"/><text x="1202.9" y="440" font-size="10.5" font-weight="700" fill="#0F1723" text-anchor="middle">M6 · W60</text><text x="1202.9" y="452" font-size="10" fill="#5A6472" text-anchor="middle">Migration engine live</text><rect x="0" y="536" width="1260" height="44" fill="#0F1723" rx="6"/><text x="16" y="554" font-size="11.5" font-weight="700" fill="#ffffff">The rule that holds across every phase</text><text x="16" y="570" font-size="11" fill="#B9C4D0">An approved request becomes a configuration row executed by ONE generic engine. MFT, API, mashup or event — it never generates a new Boomi component per interface.</text></svg>