<svg xmlns="http://www.w3.org/2000/svg" viewBox="0 0 1440 520" width="1440" height="520" font-family="Arial,Helvetica,sans-serif"><defs><marker id="ah" viewBox="0 0 10 10" refX="9" refY="5" markerWidth="7" markerHeight="7" orient="auto-start-reverse"><path d="M 0 0 L 10 5 L 0 10 z" fill="#4a4a4f"/></marker></defs><rect width="100%" height="100%" fill="#ffffff"/><text x="20" y="34" font-size="17" font-weight="bold" fill="#0b0c0c">Target state, Boomi MFT carries both boundary movements</text><rect x="20" y="60" width="200" height="190" rx="4" ry="4" fill="#fbfbfc" stroke="#9b9ba1" stroke-width="1.2" stroke-dasharray="6 4"/><text x="32" y="80" font-family="Arial,Helvetica,sans-serif" font-size="13" font-weight="bold" fill="#4a4a4f">Upstream supplier</text><rect x="250" y="60" width="720" height="190" rx="4" ry="4" fill="#fbfbfc" stroke="#9b9ba1" stroke-width="1.2" stroke-dasharray="6 4"/><text x="262" y="80" font-family="Arial,Helvetica,sans-serif" font-size="13" font-weight="bold" fill="#4a4a4f">ADR, data preparation zone, unchanged</text><rect x="1000" y="60" width="220" height="190" rx="4" ry="4" fill="#fbfbfc" stroke="#9b9ba1" stroke-width="1.2" stroke-dasharray="6 4"/><text x="1012" y="80" font-family="Arial,Helvetica,sans-serif" font-size="13" font-weight="bold" fill="#4a4a4f">Other government department</text><rect x="20" y="300" width="1200" height="170" rx="4" ry="4" fill="#fbfbfc" stroke="#9b9ba1" stroke-width="1.2" stroke-dasharray="6 4"/><text x="32" y="320" font-family="Arial,Helvetica,sans-serif" font-size="13" font-weight="bold" fill="#4a4a4f">Boomi MFT, one generic engine, two configuration rows</text><polyline points="120,170 120,190" fill="none" stroke="#4a4a4f" stroke-width="1.6" marker-end="url(#ah)"/><polyline points="195,212 225,212 225,360 260,360" fill="none" stroke="#4a4a4f" stroke-width="1.6" marker-end="url(#ah)"/><text x="243" y="285" font-family="Arial,Helvetica,sans-serif" font-size="11" fill="#4a4a4f" text-anchor="middle">collect</text><polyline points="345,330 345,165" fill="none" stroke="#4a4a4f" stroke-width="1.6" marker-end="url(#ah)"/><text x="363" y="285" font-family="Arial,Helvetica,sans-serif" font-size="11" fill="#4a4a4f" text-anchor="middle">deliver</text><polyline points="410,135 450,135" fill="none" stroke="#4a4a4f" stroke-width="1.6" marker-end="url(#ah)"/><polyline points="550,165 550,190" fill="none" stroke="#4a4a4f" stroke-width="1.6" marker-end="url(#ah)"/><polyline points="650,212 675,212 675,135 700,135" fill="none" stroke="#4a4a4f" stroke-width="1.6" marker-end="url(#ah)"/><polyline points="765,165 765,330" fill="none" stroke="#4a4a4f" stroke-width="1.6" marker-end="url(#ah)"/><text x="783" y="285" font-family="Arial,Helvetica,sans-serif" font-size="11" fill="#4a4a4f" text-anchor="middle">collect</text><polyline points="960,360 1110,360 1110,165" fill="none" stroke="#4a4a4f" stroke-width="1.6" marker-end="url(#ah)"/><text x="1128" y="285" font-family="Arial,Helvetica,sans-serif" font-size="11" fill="#4a4a4f" text-anchor="middle">deliver</text><rect x="45" y="110" width="150" height="60" rx="6" ry="6" fill="#e6d9f2" stroke="#6f5a97" stroke-width="1.4"/><text x="120.0" y="145.0" font-family="Arial,Helvetica,sans-serif" font-size="13" fill="#0b0c0c" text-anchor="middle">Migrant data</text><rect x="45" y="190" width="150" height="45" rx="6" ry="6" fill="#fdf3cf" stroke="#a8842a" stroke-width="1.4"/><text x="120.0" y="217.5" font-family="Arial,Helvetica,sans-serif" font-size="13" fill="#0b0c0c" text-anchor="middle">Flat file</text><rect x="280" y="105" width="130" height="60" rx="6" ry="6" fill="#fdf3cf" stroke="#a8842a" stroke-width="1.4"/><text x="345.0" y="132.0" font-family="Arial,Helvetica,sans-serif" font-size="12" fill="#0b0c0c" text-anchor="middle">NPS file</text><text x="345.0" y="147.0" font-family="Arial,Helvetica,sans-serif" font-size="12" fill="#0b0c0c" text-anchor="middle">landing area</text><rect x="450" y="105" width="200" height="60" rx="6" ry="6" fill="#ded3ef" stroke="#6f5a97" stroke-width="1.4"/><text x="550.0" y="132.0" font-family="Arial,Helvetica,sans-serif" font-size="12" fill="#0b0c0c" text-anchor="middle">Retained Maestro chain</text><text x="550.0" y="147.0" font-family="Arial,Helvetica,sans-serif" font-size="12" fill="#0b0c0c" text-anchor="middle">move, stage, extract</text><rect x="450" y="190" width="200" height="45" rx="6" ry="6" fill="#e6d9f2" stroke="#6f5a97" stroke-width="1.4"/><text x="550.0" y="217.5" font-family="Arial,Helvetica,sans-serif" font-size="13" fill="#0b0c0c" text-anchor="middle">MWS database staging area</text><rect x="700" y="105" width="130" height="60" rx="6" ry="6" fill="#fdf3cf" stroke="#a8842a" stroke-width="1.4"/><text x="765.0" y="132.0" font-family="Arial,Helvetica,sans-serif" font-size="12" fill="#0b0c0c" text-anchor="middle">MWS file</text><text x="765.0" y="147.0" font-family="Arial,Helvetica,sans-serif" font-size="12" fill="#0b0c0c" text-anchor="middle">output area</text><rect x="1030" y="105" width="160" height="60" rx="6" ry="6" fill="#ffffff" stroke="#4a4a4f" stroke-width="1.4"/><text x="1110.0" y="132.0" font-family="Arial,Helvetica,sans-serif" font-size="12" fill="#0b0c0c" text-anchor="middle">ONS receiving</text><text x="1110.0" y="147.0" font-family="Arial,Helvetica,sans-serif" font-size="12" fill="#0b0c0c" text-anchor="middle">endpoint</text><rect x="260" y="330" width="260" height="60" rx="6" ry="6" fill="#cfe9d8" stroke="#3d7a55" stroke-width="1.4"/><text x="390.0" y="357.0" font-family="Arial,Helvetica,sans-serif" font-size="12" fill="#0b0c0c" text-anchor="middle">Leg A flow, MFT-INT-001</text><text x="390.0" y="372.0" font-family="Arial,Helvetica,sans-serif" font-size="12" fill="#0b0c0c" text-anchor="middle">internal to internal</text><rect x="700" y="330" width="260" height="60" rx="6" ry="6" fill="#cfe9d8" stroke="#3d7a55" stroke-width="1.4"/><text x="830.0" y="357.0" font-family="Arial,Helvetica,sans-serif" font-size="12" fill="#0b0c0c" text-anchor="middle">Leg B flow, MFT-EXT-001</text><text x="830.0" y="372.0" font-family="Arial,Helvetica,sans-serif" font-size="12" fill="#0b0c0c" text-anchor="middle">internal to external</text><rect x="470" y="410" width="280" height="50" rx="6" ry="6" fill="#cfe9d8" stroke="#3d7a55" stroke-width="1.4"/><text x="610.0" y="440.0" font-family="Arial,Helvetica,sans-serif" font-size="13" fill="#0b0c0c" text-anchor="middle">Generic engine\nno bespoke component per interface</text><text x="250" y="490" font-size="12" fill="#4a4a4f">The IF server hop is removed. The internal Maestro chain is untouched. Both legs are configuration rows against the</text><text x="250" y="506" font-size="12" fill="#4a4a4f">same engine, not new components.</text></svg>