<svg viewBox="0 0 1300 650" xmlns="http://www.w3.org/2000/svg" font-family="-apple-system,Segoe UI,Roboto,Helvetica,Arial,sans-serif" role="img" aria-label="Intelligrator weekly roadmap: 7 phases over 30 weeks from 13 July 2026, MVP live at week 5">
<rect width="1300" height="650" fill="#ffffff"/>
<text x="0" y="26" font-size="19" font-weight="700" fill="#0F1723">Intelligrator — Plan on a Page</text>
<text x="0" y="46" font-size="12" fill="#7A8493">7 phases · 30 weeks · week 1 began Mon 13 Jul 2026 · MVP live week 5 (14 Aug) · 66 stories · 389 points</text><rect x="208.0" y="88" width="105.8" height="18" fill="#F5F7F9"/><text x="260.9" y="101" font-size="10.5" font-weight="700" fill="#5A6472" text-anchor="middle">Jul</text><rect x="313.8" y="88" width="176.3" height="18" fill="#EEF2F7"/><text x="402.0" y="101" font-size="10.5" font-weight="700" fill="#5A6472" text-anchor="middle">Aug</text><rect x="490.1" y="88" width="141.1" height="18" fill="#F5F7F9"/><text x="560.7" y="101" font-size="10.5" font-weight="700" fill="#5A6472" text-anchor="middle">Sep</text><rect x="631.2" y="88" width="141.1" height="18" fill="#EEF2F7"/><text x="701.7" y="101" font-size="10.5" font-weight="700" fill="#5A6472" text-anchor="middle">Oct</text><rect x="772.3" y="88" width="176.3" height="18" fill="#F5F7F9"/><text x="860.4" y="101" font-size="10.5" font-weight="700" fill="#5A6472" text-anchor="middle">Nov</text><rect x="948.6" y="88" width="141.1" height="18" fill="#EEF2F7"/><text x="1019.1" y="101" font-size="10.5" font-weight="700" fill="#5A6472" text-anchor="middle">Dec</text><rect x="1089.7" y="88" width="141.1" height="18" fill="#F5F7F9"/><text x="1160.2" y="101" font-size="10.5" font-weight="700" fill="#5A6472" text-anchor="middle">Jan '27</text><rect x="1230.7" y="88" width="35.3" height="18" fill="#EEF2F7"/><text x="1248.4" y="101" font-size="10.5" font-weight="700" fill="#5A6472" text-anchor="middle">Feb '27</text><line x1="208.0" y1="106" x2="208.0" y2="484" stroke="#F0F2F5" stroke-width="1"/><text x="225.6" y="120" font-size="9" fill="#9AA4B0" text-anchor="middle">1</text><line x1="243.3" y1="106" x2="243.3" y2="484" stroke="#F0F2F5" stroke-width="1"/><text x="260.9" y="120" font-size="9" fill="#9AA4B0" text-anchor="middle">2</text><line x1="278.5" y1="106" x2="278.5" y2="484" stroke="#F0F2F5" stroke-width="1"/><text x="296.2" y="120" font-size="9" fill="#9AA4B0" text-anchor="middle">3</text><line x1="313.8" y1="106" x2="313.8" y2="484" stroke="#F0F2F5" stroke-width="1"/><text x="331.4" y="120" font-size="9" fill="#9AA4B0" text-anchor="middle">4</text><line x1="349.1" y1="106" x2="349.1" y2="484" stroke="#F0F2F5" stroke-width="1"/><text x="366.7" y="120" font-size="9" fill="#9AA4B0" text-anchor="middle">5</text><line x1="384.3" y1="106" x2="384.3" y2="484" stroke="#F0F2F5" stroke-width="1"/><text x="402.0" y="120" font-size="9" fill="#9AA4B0" text-anchor="middle">6</text><line x1="419.6" y1="106" x2="419.6" y2="484" stroke="#F0F2F5" stroke-width="1"/><text x="437.2" y="120" font-size="9" fill="#9AA4B0" text-anchor="middle">7</text><line x1="454.9" y1="106" x2="454.9" y2="484" stroke="#F0F2F5" stroke-width="1"/><text x="472.5" y="120" font-size="9" fill="#9AA4B0" text-anchor="middle">8</text><line x1="490.1" y1="106" x2="490.1" y2="484" stroke="#F0F2F5" stroke-width="1"/><text x="507.8" y="120" font-size="9" fill="#9AA4B0" text-anchor="middle">9</text><line x1="525.4" y1="106" x2="525.4" y2="484" stroke="#F0F2F5" stroke-width="1"/><text x="543.0" y="120" font-size="9" fill="#9AA4B0" text-anchor="middle">10</text><line x1="560.7" y1="106" x2="560.7" y2="484" stroke="#F0F2F5" stroke-width="1"/><text x="578.3" y="120" font-size="9" fill="#9AA4B0" text-anchor="middle">11</text><line x1="595.9" y1="106" x2="595.9" y2="484" stroke="#F0F2F5" stroke-width="1"/><text x="613.6" y="120" font-size="9" fill="#9AA4B0" text-anchor="middle">12</text><line x1="631.2" y1="106" x2="631.2" y2="484" stroke="#F0F2F5" stroke-width="1"/><text x="648.8" y="120" font-size="9" fill="#9AA4B0" text-anchor="middle">13</text><line x1="666.5" y1="106" x2="666.5" y2="484" stroke="#F0F2F5" stroke-width="1"/><text x="684.1" y="120" font-size="9" fill="#9AA4B0" text-anchor="middle">14</text><line x1="701.7" y1="106" x2="701.7" y2="484" stroke="#F0F2F5" stroke-width="1"/><text x="719.4" y="120" font-size="9" fill="#9AA4B0" text-anchor="middle">15</text><line x1="737.0" y1="106" x2="737.0" y2="484" stroke="#F0F2F5" stroke-width="1"/><text x="754.6" y="120" font-size="9" fill="#9AA4B0" text-anchor="middle">16</text><line x1="772.3" y1="106" x2="772.3" y2="484" stroke="#F0F2F5" stroke-width="1"/><text x="789.9" y="120" font-size="9" fill="#9AA4B0" text-anchor="middle">17</text><line x1="807.5" y1="106" x2="807.5" y2="484" stroke="#F0F2F5" stroke-width="1"/><text x="825.2" y="120" font-size="9" fill="#9AA4B0" text-anchor="middle">18</text><line x1="842.8" y1="106" x2="842.8" y2="484" stroke="#F0F2F5" stroke-width="1"/><text x="860.4" y="120" font-size="9" fill="#9AA4B0" text-anchor="middle">19</text><line x1="878.1" y1="106" x2="878.1" y2="484" stroke="#F0F2F5" stroke-width="1"/><text x="895.7" y="120" font-size="9" fill="#9AA4B0" text-anchor="middle">20</text><line x1="913.3" y1="106" x2="913.3" y2="484" stroke="#F0F2F5" stroke-width="1"/><text x="931.0" y="120" font-size="9" fill="#9AA4B0" text-anchor="middle">21</text><line x1="948.6" y1="106" x2="948.6" y2="484" stroke="#F0F2F5" stroke-width="1"/><text x="966.2" y="120" font-size="9" fill="#9AA4B0" text-anchor="middle">22</text><line x1="983.9" y1="106" x2="983.9" y2="484" stroke="#F0F2F5" stroke-width="1"/><text x="1001.5" y="120" font-size="9" fill="#9AA4B0" text-anchor="middle">23</text><line x1="1019.1" y1="106" x2="1019.1" y2="484" stroke="#F0F2F5" stroke-width="1"/><text x="1036.8" y="120" font-size="9" fill="#9AA4B0" text-anchor="middle">24</text><line x1="1054.4" y1="106" x2="1054.4" y2="484" stroke="#F0F2F5" stroke-width="1"/><text x="1072.0" y="120" font-size="9" fill="#9AA4B0" text-anchor="middle">25</text><line x1="1089.7" y1="106" x2="1089.7" y2="484" stroke="#F0F2F5" stroke-width="1"/><text x="1107.3" y="120" font-size="9" fill="#9AA4B0" text-anchor="middle">26</text><line x1="1124.9" y1="106" x2="1124.9" y2="484" stroke="#F0F2F5" stroke-width="1"/><text x="1142.6" y="120" font-size="9" fill="#9AA4B0" text-anchor="middle">27</text><line x1="1160.2" y1="106" x2="1160.2" y2="484" stroke="#F0F2F5" stroke-width="1"/><text x="1177.8" y="120" font-size="9" fill="#9AA4B0" text-anchor="middle">28</text><line x1="1195.5" y1="106" x2="1195.5" y2="484" stroke="#F0F2F5" stroke-width="1"/><text x="1213.1" y="120" font-size="9" fill="#9AA4B0" text-anchor="middle">29</text><line x1="1230.7" y1="106" x2="1230.7" y2="484" stroke="#F0F2F5" stroke-width="1"/><text x="1248.4" y="120" font-size="9" fill="#9AA4B0" text-anchor="middle">30</text><line x1="1266.0" y1="106" x2="1266.0" y2="484" stroke="#F0F2F5" stroke-width="1"/><text x="200" y="120" font-size="9" font-weight="700" fill="#9AA4B0" text-anchor="end">Week</text><text x="0" y="149" font-size="12.5" font-weight="700" fill="#12161C">P0 · Foundations</text><text x="0" y="164" font-size="9.5" fill="#8B94A1">13 Jul – 24 Jul</text><rect x="208" y="134" width="1058" height="30" rx="5" fill="#F7F8FA"/><rect x="208.0" y="134" width="70.5" height="30" rx="5" fill="#5A6472"/><text x="217.0" y="153" font-size="10.5" font-weight="600" fill="#ffffff">W1–W2 · 2w · platform enablers</text><text x="0" y="199" font-size="12.5" font-weight="700" fill="#12161C">P1 · MVP · MFT + 2FA</text><text x="0" y="214" font-size="9.5" fill="#8B94A1">27 Jul – 14 Aug</text><rect x="208" y="184" width="1058" height="30" rx="5" fill="#F7F8FA"/><rect x="278.5" y="184" width="105.8" height="30" rx="5" fill="#0B5FFF"/><text x="287.5" y="203" font-size="10.5" font-weight="600" fill="#ffffff">W3–W5 · 3w · 33 stories · 161 pts</text><text x="0" y="249" font-size="12.5" font-weight="700" fill="#12161C">P2 · API build (simple)</text><text x="0" y="264" font-size="9.5" fill="#8B94A1">17 Aug – 11 Sep</text><rect x="208" y="234" width="1058" height="30" rx="5" fill="#F7F8FA"/><rect x="384.3" y="234" width="141.1" height="30" rx="5" fill="#0F7A5A"/><text x="393.3" y="253" font-size="10.5" font-weight="600" fill="#ffffff">W6–W9 · 4w · 11 stories · 76 pts</text><text x="0" y="299" font-size="12.5" font-weight="700" fill="#12161C">P3 · API mashup</text><text x="0" y="314" font-size="9.5" fill="#8B94A1">14 Sep – 23 Oct</text><rect x="208" y="284" width="1058" height="30" rx="5" fill="#F7F8FA"/><rect x="525.4" y="284" width="211.6" height="30" rx="5" fill="#7A3DB8"/><text x="534.4" y="303" font-size="10.5" font-weight="600" fill="#ffffff">W10–W15 · 6w · 3 stories · 29 pts</text><text x="0" y="349" font-size="12.5" font-weight="700" fill="#12161C">P4 · SSO &amp; governance</text><text x="0" y="364" font-size="9.5" fill="#8B94A1">12 Oct – 20 Nov</text><rect x="208" y="334" width="1058" height="30" rx="5" fill="#F7F8FA"/><rect x="666.5" y="334" width="211.6" height="30" rx="5" fill="#B5761B"/><text x="675.5" y="353" font-size="10.5" font-weight="600" fill="#ffffff">W14–W19 · 6w · 9 stories · 44 pts</text><text x="0" y="399" font-size="12.5" font-weight="700" fill="#12161C">P5 · Event-driven</text><text x="0" y="414" font-size="9.5" fill="#8B94A1">23 Nov – 25 Dec</text><rect x="208" y="384" width="1058" height="30" rx="5" fill="#F7F8FA"/><rect x="878.1" y="384" width="176.3" height="30" rx="5" fill="#C2410C"/><text x="887.1" y="403" font-size="10.5" font-weight="600" fill="#ffffff">W20–W24 · 5w · 4 stories · 34 pts</text><text x="0" y="449" font-size="12.5" font-weight="700" fill="#12161C">P6 · Optimise &amp; retire</text><text x="0" y="464" font-size="9.5" fill="#8B94A1">28 Dec – 5 Feb 2027</text><rect x="208" y="434" width="1058" height="30" rx="5" fill="#F7F8FA"/><rect x="1054.4" y="434" width="211.6" height="30" rx="5" fill="#B3261E"/><text x="1063.4" y="453" font-size="10.5" font-weight="600" fill="#ffffff">W25–W30 · 6w · 6 stories · 45 pts</text><line x1="208" y1="510" x2="1266" y2="510" stroke="#DFE4EA" stroke-width="1"/><text x="0" y="514" font-size="11.5" font-weight="700" fill="#12161C">Milestones</text><line x1="278.5" y1="498.0" x2="278.5" y2="510.0" stroke="#B9C4D0" stroke-width="1"/><polygon points="278.5,504 284.5,510 278.5,516 272.5,510" fill="#0F1723"/><text x="278.5" y="480" font-size="10.5" font-weight="700" fill="#0F1723" text-anchor="middle">M0 · W2</text><text x="278.5" y="469" font-size="9.5" fill="#5A6472" text-anchor="middle">Foundations ready (24 Jul)</text><line x1="384.3" y1="510.0" x2="384.3" y2="522.0" stroke="#B9C4D0" stroke-width="1"/><polygon points="384.3,504 390.3,510 384.3,516 378.3,510" fill="#0F1723"/><text x="384.3" y="532" font-size="10.5" font-weight="700" fill="#0F1723" text-anchor="middle">M1 · W5</text><text x="384.3" y="544" font-size="9.5" fill="#5A6472" text-anchor="middle">MVP live — MFT + 2FA (14 Aug)</text><line x1="525.4" y1="498.0" x2="525.4" y2="510.0" stroke="#B9C4D0" stroke-width="1"/><polygon points="525.4,504 531.4,510 525.4,516 519.4,510" fill="#0F1723"/><text x="525.4" y="480" font-size="10.5" font-weight="700" fill="#0F1723" text-anchor="middle">M2 · W9</text><text x="525.4" y="469" font-size="9.5" fill="#5A6472" text-anchor="middle">Simple API build live (11 Sep)</text><line x1="737.0" y1="510.0" x2="737.0" y2="522.0" stroke="#B9C4D0" stroke-width="1"/><polygon points="737.0,504 743.0,510 737.0,516 731.0,510" fill="#0F1723"/><text x="737.0" y="532" font-size="10.5" font-weight="700" fill="#0F1723" text-anchor="middle">M3 · W15</text><text x="737.0" y="544" font-size="9.5" fill="#5A6472" text-anchor="middle">First mashup in production (23 Oct)</text><line x1="878.1" y1="498.0" x2="878.1" y2="510.0" stroke="#B9C4D0" stroke-width="1"/><polygon points="878.1,504 884.1,510 878.1,516 872.1,510" fill="#0F1723"/><text x="878.1" y="480" font-size="10.5" font-weight="700" fill="#0F1723" text-anchor="middle">M4 · W19</text><text x="878.1" y="469" font-size="9.5" fill="#5A6472" text-anchor="middle">SSO cutover · governance live (20 Nov)</text><line x1="1054.4" y1="510.0" x2="1054.4" y2="522.0" stroke="#B9C4D0" stroke-width="1"/><polygon points="1054.4,504 1060.4,510 1054.4,516 1048.4,510" fill="#0F1723"/><text x="1054.4" y="532" font-size="10.5" font-weight="700" fill="#0F1723" text-anchor="middle">M5 · W24</text><text x="1054.4" y="544" font-size="9.5" fill="#5A6472" text-anchor="middle">Event-driven onboarding (25 Dec)</text><line x1="1266.0" y1="498.0" x2="1266.0" y2="510.0" stroke="#B9C4D0" stroke-width="1"/><polygon points="1266.0,504 1272.0,510 1266.0,516 1260.0,510" fill="#0F1723"/><text x="1266.0" y="480" font-size="10.5" font-weight="700" fill="#0F1723" text-anchor="middle">M6 · W30</text><text x="1266.0" y="469" font-size="9.5" fill="#5A6472" text-anchor="middle">Migration engine live (5 Feb 2027)</text><rect x="0" y="602" width="1300" height="44" fill="#0F1723" rx="6"/><text x="16" y="620" font-size="11.5" font-weight="700" fill="#ffffff">The rule that holds across every phase</text><text x="16" y="636" font-size="11" fill="#B9C4D0">An approved request becomes a configuration row executed by ONE generic engine. MFT, API, mashup or event — it never generates a new Boomi component per interface.</text></svg>