<svg xmlns="http://www.w3.org/2000/svg" viewBox="0 0 1500 1220" width="1500" height="1220" font-family="Segoe UI,Arial,sans-serif"><defs><marker id="arrow_444444" markerWidth="9" markerHeight="9" refX="7" refY="3" orient="auto" markerUnits="strokeWidth"><path d="M0,0 L7,3 L0,6 Z" fill="#444444"/></marker><marker id="arrow_b85450" markerWidth="9" markerHeight="9" refX="7" refY="3" orient="auto" markerUnits="strokeWidth"><path d="M0,0 L7,3 L0,6 Z" fill="#b85450"/></marker><marker id="arrow_3f6fbf" markerWidth="9" markerHeight="9" refX="7" refY="3" orient="auto" markerUnits="strokeWidth"><path d="M0,0 L7,3 L0,6 Z" fill="#3f6fbf"/></marker></defs><rect x="0" y="0" width="1500" height="1220" fill="#ffffff"/><rect x="40" y="40" width="1360" height="300" rx="2" fill="#f0f0f0" stroke="#8a8a8a" stroke-width="1.2"/><text x="52" y="62" font-family="Segoe UI,Arial,sans-serif" font-size="13" font-weight="700" text-anchor="start" fill="#333">External HMRC</text><rect x="70" y="90" width="220" height="210" rx="2" fill="#eaeaea" stroke="#9a9a9a" stroke-width="1"/><text x="80" y="110" font-family="Segoe UI,Arial,sans-serif" font-size="13" font-weight="700" text-anchor="start" fill="#333">External Consumers</text><rect x="310" y="90" width="200" height="210" rx="2" fill="#eaeaea" stroke="#9a9a9a" stroke-width="1"/><text x="320" y="110" font-family="Segoe UI,Arial,sans-serif" font-size="13" font-weight="700" text-anchor="start" fill="#333">HMRC Digital</text><rect x="530" y="90" width="840" height="210" rx="2" fill="#eaeaea" stroke="#9a9a9a" stroke-width="1"/><text x="540" y="110" font-family="Segoe UI,Arial,sans-serif" font-size="13" font-weight="700" text-anchor="start" fill="#333">HMRC SaaS Systems</text><rect x="40" y="380" width="1360" height="340" rx="2" fill="#f4f4f4" stroke="#5b5b5b" stroke-width="1.4"/><text x="52" y="402" font-family="Segoe UI,Arial,sans-serif" font-size="13" font-weight="700" text-anchor="start" fill="#333">iPaaS Platform  (Boomi)</text><rect x="40" y="780" width="1360" height="380" rx="2" fill="#f0f0f0" stroke="#8a8a8a" stroke-width="1.2"/><text x="52" y="802" font-family="Segoe UI,Arial,sans-serif" font-size="13" font-weight="700" text-anchor="start" fill="#333">Internal HMRC</text><rect x="70" y="830" width="400" height="300" rx="2" fill="#e6e6e6" stroke="#9a9a9a" stroke-width="1"/><text x="80" y="850" font-family="Segoe UI,Arial,sans-serif" font-size="13" font-weight="700" text-anchor="start" fill="#333">AWS</text><rect x="490" y="830" width="400" height="300" rx="2" fill="#e6e6e6" stroke="#9a9a9a" stroke-width="1"/><text x="500" y="850" font-family="Segoe UI,Arial,sans-serif" font-size="13" font-weight="700" text-anchor="start" fill="#333">Azure</text><rect x="910" y="830" width="220" height="300" rx="2" fill="#e6e6e6" stroke="#9a9a9a" stroke-width="1"/><text x="920" y="850" font-family="Segoe UI,Arial,sans-serif" font-size="13" font-weight="700" text-anchor="start" fill="#333">Fujitsu</text><rect x="1150" y="830" width="220" height="300" rx="2" fill="#e6e6e6" stroke="#9a9a9a" stroke-width="1"/><text x="1160" y="850" font-family="Segoe UI,Arial,sans-serif" font-size="13" font-weight="700" text-anchor="start" fill="#333">Crown Hosting</text><rect x="95" y="150" width="170" height="70" rx="3" fill="#fff2cc" stroke="#d6b656" stroke-width="1.5"/><rect x="249" y="158" width="12" height="5" fill="#fff2cc" stroke="#d6b656" stroke-width="1"/><rect x="249" y="166" width="12" height="5" fill="#fff2cc" stroke="#d6b656" stroke-width="1"/><text x="180.0" y="182.0" font-family="Segoe UI,Arial,sans-serif" font-size="11" font-weight="600" text-anchor="middle" fill="#1a1a1a">3rd Party</text><text x="180.0" y="196.0" font-family="Segoe UI,Arial,sans-serif" font-size="11" font-weight="600" text-anchor="middle" fill="#1a1a1a">Consumers OGDs</text><rect x="340" y="155" width="140" height="60" rx="3" fill="#fff2cc" stroke="#d6b656" stroke-width="1.5"/><rect x="464" y="163" width="12" height="5" fill="#fff2cc" stroke="#d6b656" stroke-width="1"/><rect x="464" y="171" width="12" height="5" fill="#fff2cc" stroke="#d6b656" stroke-width="1"/><text x="410.0" y="189.0" font-family="Segoe UI,Arial,sans-serif" font-size="11" font-weight="600" text-anchor="middle" fill="#1a1a1a">MDTP</text><rect x="560" y="150" width="150" height="80" rx="3" fill="#fff2cc" stroke="#d6b656" stroke-width="1.5"/><rect x="694" y="158" width="12" height="5" fill="#fff2cc" stroke="#d6b656" stroke-width="1"/><rect x="694" y="166" width="12" height="5" fill="#fff2cc" stroke="#d6b656" stroke-width="1"/><text x="635.0" y="187.0" font-family="Segoe UI,Arial,sans-serif" font-size="11" font-weight="600" text-anchor="middle" fill="#1a1a1a">ETMP S4H</text><text x="635.0" y="201.0" font-family="Segoe UI,Arial,sans-serif" font-size="11" font-weight="600" text-anchor="middle" fill="#1a1a1a">(Native iPaaS)</text><rect x="730" y="150" width="150" height="80" rx="3" fill="#fff2cc" stroke="#d6b656" stroke-width="1.5"/><rect x="864" y="158" width="12" height="5" fill="#fff2cc" stroke="#d6b656" stroke-width="1"/><rect x="864" y="166" width="12" height="5" fill="#fff2cc" stroke="#d6b656" stroke-width="1"/><text x="805.0" y="180.0" font-family="Segoe UI,Arial,sans-serif" font-size="11" font-weight="600" text-anchor="middle" fill="#1a1a1a">CRM System</text><text x="805.0" y="194.0" font-family="Segoe UI,Arial,sans-serif" font-size="11" font-weight="600" text-anchor="middle" fill="#1a1a1a">CF / MSD</text><text x="805.0" y="208.0" font-family="Segoe UI,Arial,sans-serif" font-size="11" font-weight="600" text-anchor="middle" fill="#1a1a1a">(Native iPaaS)</text><rect x="900" y="150" width="150" height="80" rx="3" fill="#fff2cc" stroke="#d6b656" stroke-width="1.5"/><rect x="1034" y="158" width="12" height="5" fill="#fff2cc" stroke="#d6b656" stroke-width="1"/><rect x="1034" y="166" width="12" height="5" fill="#fff2cc" stroke="#d6b656" stroke-width="1"/><text x="975.0" y="187.0" font-family="Segoe UI,Arial,sans-serif" font-size="11" font-weight="600" text-anchor="middle" fill="#1a1a1a">Workflow Pega</text><text x="975.0" y="201.0" font-family="Segoe UI,Arial,sans-serif" font-size="11" font-weight="600" text-anchor="middle" fill="#1a1a1a">(Native iPaaS)</text><rect x="1070" y="150" width="150" height="80" rx="3" fill="#fff2cc" stroke="#d6b656" stroke-width="1.5"/><rect x="1204" y="158" width="12" height="5" fill="#fff2cc" stroke="#d6b656" stroke-width="1"/><rect x="1204" y="166" width="12" height="5" fill="#fff2cc" stroke="#d6b656" stroke-width="1"/><text x="1145.0" y="187.0" font-family="Segoe UI,Arial,sans-serif" font-size="11" font-weight="600" text-anchor="middle" fill="#1a1a1a">B&amp;T System</text><text x="1145.0" y="201.0" font-family="Segoe UI,Arial,sans-serif" font-size="11" font-weight="600" text-anchor="middle" fill="#1a1a1a">CDS</text><rect x="80" y="430" width="210" height="55" rx="3" fill="#dae8fc" stroke="#6c8ebf" stroke-width="1.5"/><rect x="274" y="438" width="12" height="5" fill="#dae8fc" stroke="#6c8ebf" stroke-width="1"/><rect x="274" y="446" width="12" height="5" fill="#dae8fc" stroke="#6c8ebf" stroke-width="1"/><text x="185.0" y="454.5" font-family="Segoe UI,Arial,sans-serif" font-size="11" font-weight="600" text-anchor="middle" fill="#1a1a1a">Deployment Channel</text><text x="185.0" y="468.5" font-family="Segoe UI,Arial,sans-serif" font-size="11" font-weight="600" text-anchor="middle" fill="#1a1a1a">(Boomi Flow)</text><rect x="80" y="500" width="210" height="55" rx="3" fill="#dae8fc" stroke="#6c8ebf" stroke-width="1.5"/><rect x="274" y="508" width="12" height="5" fill="#dae8fc" stroke="#6c8ebf" stroke-width="1"/><rect x="274" y="516" width="12" height="5" fill="#dae8fc" stroke="#6c8ebf" stroke-width="1"/><text x="185.0" y="524.5" font-family="Segoe UI,Arial,sans-serif" font-size="11" font-weight="600" text-anchor="middle" fill="#1a1a1a">MFT Register</text><text x="185.0" y="538.5" font-family="Segoe UI,Arial,sans-serif" font-size="11" font-weight="600" text-anchor="middle" fill="#1a1a1a">(Boomi Flow)</text><rect x="80" y="570" width="210" height="55" rx="3" fill="#dae8fc" stroke="#6c8ebf" stroke-width="1.5"/><rect x="274" y="578" width="12" height="5" fill="#dae8fc" stroke="#6c8ebf" stroke-width="1"/><rect x="274" y="586" width="12" height="5" fill="#dae8fc" stroke="#6c8ebf" stroke-width="1"/><text x="185.0" y="601.5" font-family="Segoe UI,Arial,sans-serif" font-size="11" font-weight="600" text-anchor="middle" fill="#1a1a1a">MFT Flow Designer</text><rect x="80" y="640" width="210" height="55" rx="3" fill="#dae8fc" stroke="#6c8ebf" stroke-width="1.5"/><rect x="274" y="648" width="12" height="5" fill="#dae8fc" stroke="#6c8ebf" stroke-width="1"/><rect x="274" y="656" width="12" height="5" fill="#dae8fc" stroke="#6c8ebf" stroke-width="1"/><text x="185.0" y="671.5" font-family="Segoe UI,Arial,sans-serif" font-size="11" font-weight="600" text-anchor="middle" fill="#1a1a1a">MFT Platform</text><rect x="560" y="470" width="200" height="100" rx="3" fill="#dae8fc" stroke="#6c8ebf" stroke-width="1.5"/><rect x="744" y="478" width="12" height="5" fill="#dae8fc" stroke="#6c8ebf" stroke-width="1"/><rect x="744" y="486" width="12" height="5" fill="#dae8fc" stroke="#6c8ebf" stroke-width="1"/><text x="660.0" y="517.0" font-family="Segoe UI,Arial,sans-serif" font-size="13" font-weight="600" text-anchor="middle" fill="#1a1a1a">MFT Node</text><text x="660.0" y="533.0" font-family="Segoe UI,Arial,sans-serif" font-size="13" font-weight="600" text-anchor="middle" fill="#1a1a1a">(Runtime)</text><rect x="880" y="480" width="180" height="80" rx="3" fill="#f8cecc" stroke="#b85450" stroke-width="1.5"/><rect x="1044" y="488" width="12" height="5" fill="#f8cecc" stroke="#b85450" stroke-width="1"/><rect x="1044" y="496" width="12" height="5" fill="#f8cecc" stroke="#b85450" stroke-width="1"/><text x="970.0" y="524.0" font-family="Segoe UI,Arial,sans-serif" font-size="11" font-weight="600" text-anchor="middle" fill="#1a1a1a">Boomi Integration</text><rect x="1130" y="470" width="200" height="90" rx="3" fill="#f8cecc" stroke="#b85450" stroke-width="1.5"/><rect x="1314" y="478" width="12" height="5" fill="#f8cecc" stroke="#b85450" stroke-width="1"/><rect x="1314" y="486" width="12" height="5" fill="#f8cecc" stroke="#b85450" stroke-width="1"/><text x="1230.0" y="512.0" font-family="Segoe UI,Arial,sans-serif" font-size="11" font-weight="600" text-anchor="middle" fill="#1a1a1a">CAM Runtime</text><text x="1230.0" y="526.0" font-family="Segoe UI,Arial,sans-serif" font-size="11" font-weight="600" text-anchor="middle" fill="#1a1a1a">(External API Gateway)</text><rect x="1130" y="620" width="200" height="70" rx="3" fill="#f8cecc" stroke="#b85450" stroke-width="1.5"/><rect x="1314" y="628" width="12" height="5" fill="#f8cecc" stroke="#b85450" stroke-width="1"/><rect x="1314" y="636" width="12" height="5" fill="#f8cecc" stroke="#b85450" stroke-width="1"/><text x="1230.0" y="652.0" font-family="Segoe UI,Arial,sans-serif" font-size="11" font-weight="600" text-anchor="middle" fill="#1a1a1a">Cloud API Management</text><text x="1230.0" y="666.0" font-family="Segoe UI,Arial,sans-serif" font-size="11" font-weight="600" text-anchor="middle" fill="#1a1a1a">(CAM)</text><rect x="95" y="900" width="130" height="70" rx="3" fill="#fff2cc" stroke="#d6b656" stroke-width="1.5"/><rect x="209" y="908" width="12" height="5" fill="#fff2cc" stroke="#d6b656" stroke-width="1"/><rect x="209" y="916" width="12" height="5" fill="#fff2cc" stroke="#d6b656" stroke-width="1"/><text x="160.0" y="932.0" font-family="Segoe UI,Arial,sans-serif" font-size="11" font-weight="600" text-anchor="middle" fill="#1a1a1a">HoD</text><text x="160.0" y="946.0" font-family="Segoe UI,Arial,sans-serif" font-size="11" font-weight="600" text-anchor="middle" fill="#1a1a1a">Application</text><rect x="280" y="890" width="160" height="90" rx="3" fill="#dae8fc" stroke="#6c8ebf" stroke-width="1.5"/><rect x="424" y="898" width="12" height="5" fill="#dae8fc" stroke="#6c8ebf" stroke-width="1"/><rect x="424" y="906" width="12" height="5" fill="#dae8fc" stroke="#6c8ebf" stroke-width="1"/><text x="360.0" y="932.0" font-family="Segoe UI,Arial,sans-serif" font-size="11" font-weight="600" text-anchor="middle" fill="#1a1a1a">MFT Node</text><text x="360.0" y="946.0" font-family="Segoe UI,Arial,sans-serif" font-size="11" font-weight="600" text-anchor="middle" fill="#1a1a1a">(Runtime)</text><rect x="95" y="1010" width="160" height="75" rx="3" fill="#f8cecc" stroke="#b85450" stroke-width="1.5"/><rect x="239" y="1018" width="12" height="5" fill="#f8cecc" stroke="#b85450" stroke-width="1"/><rect x="239" y="1026" width="12" height="5" fill="#f8cecc" stroke="#b85450" stroke-width="1"/><text x="175.0" y="1044.5" font-family="Segoe UI,Arial,sans-serif" font-size="11" font-weight="600" text-anchor="middle" fill="#1a1a1a">CAM Runtime</text><text x="175.0" y="1058.5" font-family="Segoe UI,Arial,sans-serif" font-size="11" font-weight="600" text-anchor="middle" fill="#1a1a1a">(Internal API GW)</text><rect x="515" y="900" width="130" height="70" rx="3" fill="#fff2cc" stroke="#d6b656" stroke-width="1.5"/><rect x="629" y="908" width="12" height="5" fill="#fff2cc" stroke="#d6b656" stroke-width="1"/><rect x="629" y="916" width="12" height="5" fill="#fff2cc" stroke="#d6b656" stroke-width="1"/><text x="580.0" y="932.0" font-family="Segoe UI,Arial,sans-serif" font-size="11" font-weight="600" text-anchor="middle" fill="#1a1a1a">HoD</text><text x="580.0" y="946.0" font-family="Segoe UI,Arial,sans-serif" font-size="11" font-weight="600" text-anchor="middle" fill="#1a1a1a">Application</text><rect x="700" y="890" width="160" height="90" rx="3" fill="#dae8fc" stroke="#6c8ebf" stroke-width="1.5"/><rect x="844" y="898" width="12" height="5" fill="#dae8fc" stroke="#6c8ebf" stroke-width="1"/><rect x="844" y="906" width="12" height="5" fill="#dae8fc" stroke="#6c8ebf" stroke-width="1"/><text x="780.0" y="932.0" font-family="Segoe UI,Arial,sans-serif" font-size="11" font-weight="600" text-anchor="middle" fill="#1a1a1a">MFT Node</text><text x="780.0" y="946.0" font-family="Segoe UI,Arial,sans-serif" font-size="11" font-weight="600" text-anchor="middle" fill="#1a1a1a">(Runtime)</text><rect x="515" y="1010" width="160" height="75" rx="3" fill="#f8cecc" stroke="#b85450" stroke-width="1.5"/><rect x="659" y="1018" width="12" height="5" fill="#f8cecc" stroke="#b85450" stroke-width="1"/><rect x="659" y="1026" width="12" height="5" fill="#f8cecc" stroke="#b85450" stroke-width="1"/><text x="595.0" y="1044.5" font-family="Segoe UI,Arial,sans-serif" font-size="11" font-weight="600" text-anchor="middle" fill="#1a1a1a">CAM Runtime</text><text x="595.0" y="1058.5" font-family="Segoe UI,Arial,sans-serif" font-size="11" font-weight="600" text-anchor="middle" fill="#1a1a1a">(Internal API GW)</text><rect x="945" y="920" width="150" height="75" rx="3" fill="#fff2cc" stroke="#d6b656" stroke-width="1.5"/><rect x="1079" y="928" width="12" height="5" fill="#fff2cc" stroke="#d6b656" stroke-width="1"/><rect x="1079" y="936" width="12" height="5" fill="#fff2cc" stroke="#d6b656" stroke-width="1"/><text x="1020.0" y="954.5" font-family="Segoe UI,Arial,sans-serif" font-size="11" font-weight="600" text-anchor="middle" fill="#1a1a1a">HoD</text><text x="1020.0" y="968.5" font-family="Segoe UI,Arial,sans-serif" font-size="11" font-weight="600" text-anchor="middle" fill="#1a1a1a">Application</text><rect x="1185" y="920" width="150" height="75" rx="3" fill="#fff2cc" stroke="#d6b656" stroke-width="1.5"/><rect x="1319" y="928" width="12" height="5" fill="#fff2cc" stroke="#d6b656" stroke-width="1"/><rect x="1319" y="936" width="12" height="5" fill="#fff2cc" stroke="#d6b656" stroke-width="1"/><text x="1260.0" y="954.5" font-family="Segoe UI,Arial,sans-serif" font-size="11" font-weight="600" text-anchor="middle" fill="#1a1a1a">HoD</text><text x="1260.0" y="968.5" font-family="Segoe UI,Arial,sans-serif" font-size="11" font-weight="600" text-anchor="middle" fill="#1a1a1a">Application</text><rect x="1130" y="360" width="250" height="110" rx="2" fill="#ffffff" stroke="#8a8a8a" stroke-width="1"/><text x="1255" y="378" font-family="Segoe UI,Arial,sans-serif" font-size="11" font-weight="600" text-anchor="middle" fill="#333" font-style="italic">Legends</text><line x1="1145" y1="398" x2="1205" y2="398" stroke="#444444" stroke-width="2" marker-end="url(#arrow_444444)"/><text x="1210" y="402" font-family="Segoe UI,Arial,sans-serif" font-size="9" font-weight="500" text-anchor="start" fill="#333">Configuration / Deployment</text><line x1="1145" y1="426" x2="1205" y2="426" stroke="#b85450" stroke-width="2" marker-end="url(#arrow_b85450)"/><text x="1210" y="430" font-family="Segoe UI,Arial,sans-serif" font-size="9" font-weight="500" text-anchor="start" fill="#333">API Trigger File Transfer</text><line x1="1145" y1="454" x2="1205" y2="454" stroke="#3f6fbf" stroke-width="2" marker-end="url(#arrow_3f6fbf)"/><text x="1210" y="458" font-family="Segoe UI,Arial,sans-serif" font-size="9" font-weight="500" text-anchor="start" fill="#333">File Transfer</text><line x1="185" y1="570" x2="185" y2="555" stroke="#444444" stroke-width="2" marker-end="url(#arrow_444444)"/><line x1="185" y1="640" x2="185" y2="625" stroke="#444444" stroke-width="2" marker-end="url(#arrow_444444)"/><line x1="290" y1="455" x2="560" y2="500" stroke="#444444" stroke-width="2" marker-end="url(#arrow_444444)"/><text x="430" y="445" font-family="Segoe UI,Arial,sans-serif" font-size="9" font-weight="500" text-anchor="middle" fill="#555">Deploy</text><line x1="290" y1="527" x2="560" y2="520" stroke="#444444" stroke-width="2" marker-end="url(#arrow_444444)"/><line x1="185" y1="695" x2="360" y2="890" stroke="#444444" stroke-width="2" marker-end="url(#arrow_444444)"/><text x="250" y="800" font-family="Segoe UI,Arial,sans-serif" font-size="9" font-weight="500" text-anchor="middle" fill="#555">Deploy</text><line x1="220" y1="695" x2="700" y2="890" stroke="#444444" stroke-width="2" marker-end="url(#arrow_444444)"/><line x1="635" y1="230" x2="640" y2="470" stroke="#3f6fbf" stroke-width="2" marker-end="url(#arrow_3f6fbf)"/><line x1="410" y1="215" x2="600" y2="470" stroke="#3f6fbf" stroke-width="2" marker-end="url(#arrow_3f6fbf)"/><line x1="560" y1="540" x2="440" y2="910" stroke="#3f6fbf" stroke-width="2" marker-end="url(#arrow_3f6fbf)"/><line x1="720" y1="540" x2="780" y2="890" stroke="#3f6fbf" stroke-width="2" marker-end="url(#arrow_3f6fbf)"/><line x1="225" y1="935" x2="280" y2="935" stroke="#3f6fbf" stroke-width="2" marker-end="url(#arrow_3f6fbf)"/><line x1="645" y1="935" x2="700" y2="935" stroke="#3f6fbf" stroke-width="2" marker-end="url(#arrow_3f6fbf)"/><line x1="360" y1="980" x2="1000" y2="920" stroke="#3f6fbf" stroke-width="2" marker-end="url(#arrow_3f6fbf)"/><line x1="780" y1="980" x2="1240" y2="920" stroke="#3f6fbf" stroke-width="2" marker-end="url(#arrow_3f6fbf)"/><line x1="230" y1="220" x2="1160" y2="470" stroke="#b85450" stroke-width="2" marker-end="url(#arrow_b85450)"/><line x1="1160" y1="230" x2="1210" y2="470" stroke="#b85450" stroke-width="2" marker-end="url(#arrow_b85450)"/><line x1="1130" y1="515" x2="1060" y2="520" stroke="#b85450" stroke-width="2" marker-end="url(#arrow_b85450)"/><line x1="880" y1="520" x2="760" y2="520" stroke="#b85450" stroke-width="2" marker-end="url(#arrow_b85450)"/><text x="820" y="505" font-family="Segoe UI,Arial,sans-serif" font-size="9" font-weight="500" text-anchor="middle" fill="#555">Scheduled / API triggered / Batch</text><line x1="1230" y1="620" x2="1230" y2="560" stroke="#b85450" stroke-width="2" marker-end="url(#arrow_b85450)"/><line x1="160" y1="1010" x2="160" y2="970" stroke="#b85450" stroke-width="2" marker-end="url(#arrow_b85450)"/><line x1="255" y1="1045" x2="280" y2="980" stroke="#b85450" stroke-width="2" marker-end="url(#arrow_b85450)"/><line x1="580" y1="1010" x2="580" y2="970" stroke="#b85450" stroke-width="2" marker-end="url(#arrow_b85450)"/><line x1="675" y1="1045" x2="700" y2="980" stroke="#b85450" stroke-width="2" marker-end="url(#arrow_b85450)"/></svg>