<svg xmlns="http://www.w3.org/2000/svg" width="1240" height="800" viewBox="0 0 1240 800" font-family="Segoe UI,Arial,sans-serif">
<rect x="0" y="0" width="1240" height="800" fill="#f6f8fb"/>
<defs><marker id="aMain" markerWidth="11" markerHeight="11" refX="8.5" refY="5" orient="auto"><path d="M0,0 L10,5 L0,10 z" fill="#233"/></marker></defs>
<defs><marker id="aUp" markerWidth="11" markerHeight="11" refX="8.5" refY="5" orient="auto"><path d="M0,0 L10,5 L0,10 z" fill="#1d7a4d"/></marker></defs>
<defs><marker id="aDn" markerWidth="11" markerHeight="11" refX="8.5" refY="5" orient="auto"><path d="M0,0 L10,5 L0,10 z" fill="#2e6ca4"/></marker></defs>
<defs><marker id="aLink" markerWidth="11" markerHeight="11" refX="8.5" refY="5" orient="auto"><path d="M0,0 L10,5 L0,10 z" fill="#8a5a00"/></marker></defs>
<text x="620.0" y="42" text-anchor="middle" font-size="22" font-weight="700" fill="#12123A">Boomi MFT File Sharing (FS): citizen upload / download &amp; agent dynamic links</text>
<text x="620.0" y="66" text-anchor="middle" font-size="13" fill="#5b6b7d">Ad-hoc, person-driven capability. Distinct from Automated File Transfer (AFT).</text>
<rect x="40" y="250" width="250" height="250" rx="12" fill="#fbf1ee" stroke="#E24A2E" stroke-width="1.5" stroke-dasharray="7 5"/>
<text x="54" y="272" font-size="12.5" font-weight="700" fill="#E24A2E" letter-spacing="0.4">EXTERNAL: Citizens / Customers</text>
<rect x="360" y="95" width="500" height="640" rx="12" fill="#eaf1f8" stroke="#2e6ca4" stroke-width="1.5" stroke-dasharray="7 5"/>
<text x="374" y="117" font-size="12.5" font-weight="700" fill="#2e6ca4" letter-spacing="0.4">BOOMI MFT File Sharing (FS)  ·  cloud</text>
<rect x="915" y="250" width="285" height="250" rx="12" fill="#eef7f1" stroke="#1d7a4d" stroke-width="1.5" stroke-dasharray="7 5"/>
<text x="929" y="272" font-size="12.5" font-weight="700" fill="#1d7a4d" letter-spacing="0.4">SMIC: internal secure zone</text>
<line x1="260.0" y1="333.6" x2="484.3" y2="224.0" stroke="#1d7a4d" stroke-width="2" marker-end="url(#aUp)"/>
<rect x="280.9" y="253.8" width="170.4" height="19" rx="9" fill="#ffffff" stroke="#1d7a4d" stroke-width="0.8" opacity="0.96"/>
<text x="366.1" y="268.3" text-anchor="middle" font-size="11.5" font-weight="600" fill="#1d7a4d">1  Upload  (HTTPS/TLS)</text>
<line x1="560.0" y1="224.0" x2="560.0" y2="300.0" stroke="#233" stroke-width="2" marker-end="url(#aMain)"/>
<rect x="524.8" y="251.0" width="98.4" height="19" rx="9" fill="#ffffff" stroke="#233" stroke-width="0.8" opacity="0.96"/>
<text x="574.0" y="265.5" text-anchor="middle" font-size="11.5" font-weight="600" fill="#233">scan + store</text>
<line x1="935.0" y1="375.9" x2="710.0" y2="359.2" stroke="#233" stroke-width="2" stroke-dasharray="6 5" marker-end="url(#aMain)"/>
<rect x="726.5" y="340.5" width="192.0" height="19" rx="9" fill="#ffffff" stroke="#233" stroke-width="0.8" opacity="0.96"/>
<text x="822.5" y="355.0" text-anchor="middle" font-size="11.5" font-weight="600" fill="#233">upload / manage documents</text>
<line x1="935.0" y1="415.0" x2="710.0" y2="470.2" stroke="#8a5a00" stroke-width="2" marker-end="url(#aLink)"/>
<rect x="747.3" y="421.6" width="170.4" height="19" rx="9" fill="#ffffff" stroke="#8a5a00" stroke-width="0.8" opacity="0.96"/>
<text x="832.5" y="436.1" text-anchor="middle" font-size="11.5" font-weight="600" fill="#8a5a00">2  Create dynamic link</text>
<line x1="444.9" y1="470.0" x2="260.0" y2="410.5" stroke="#8a5a00" stroke-width="2" marker-end="url(#aLink)"/>
<rect x="249.3" y="451.3" width="206.4" height="19" rx="9" fill="#ffffff" stroke="#8a5a00" stroke-width="0.8" opacity="0.96"/>
<text x="352.5" y="465.8" text-anchor="middle" font-size="11.5" font-weight="600" fill="#8a5a00">3  Link via email / website</text>
<line x1="260.0" y1="372.3" x2="410.0" y2="360.2" stroke="#2e6ca4" stroke-width="2" marker-end="url(#aDn)"/>
<rect x="210.2" y="341.2" width="249.6" height="19" rx="9" fill="#ffffff" stroke="#2e6ca4" stroke-width="0.8" opacity="0.96"/>
<text x="335.0" y="355.7" text-anchor="middle" font-size="11.5" font-weight="600" fill="#2e6ca4">4  Download via link  (HTTPS/TLS)</text>
<line x1="951.4" y1="440.0" x2="623.6" y2="610.0" stroke="#233" stroke-width="2" stroke-dasharray="6 5" marker-end="url(#aMain)"/>
<rect x="766.3" y="514.0" width="62.4" height="19" rx="9" fill="#ffffff" stroke="#233" stroke-width="0.8" opacity="0.96"/>
<text x="797.5" y="528.5" text-anchor="middle" font-size="11.5" font-weight="600" fill="#233">sign in</text>
<rect x="70" y="330" width="190" height="100" rx="9" fill="#ffffff" stroke="#E24A2E" stroke-width="2"/>
<text x="165.0" y="372.5" text-anchor="middle" font-family="Segoe UI,Arial,sans-serif" font-size="13" font-weight="700" fill="#233">Citizen / Customer</text>
<text x="165.0" y="389.5" text-anchor="middle" font-family="Segoe UI,Arial,sans-serif" font-size="12" font-weight="400" fill="#233">(external · no MFT account)</text>
<rect x="410" y="150" width="300" height="74" rx="9" fill="#ffffff" stroke="#2e6ca4" stroke-width="2"/>
<text x="560.0" y="179.5" text-anchor="middle" font-family="Segoe UI,Arial,sans-serif" font-size="13" font-weight="700" fill="#233">MFT Dropbox™</text>
<text x="560.0" y="196.5" text-anchor="middle" font-family="Segoe UI,Arial,sans-serif" font-size="12" font-weight="400" fill="#233">Inbound upload link · no account needed</text>
<rect x="410" y="300" width="300" height="96" rx="9" fill="#12123A" stroke="#12123A" stroke-width="2"/>
<text x="560.0" y="340.5" text-anchor="middle" font-family="Segoe UI,Arial,sans-serif" font-size="13" font-weight="700" fill="#ffffff">File Share store</text>
<text x="560.0" y="357.5" text-anchor="middle" font-family="Segoe UI,Arial,sans-serif" font-size="12" font-weight="400" fill="#ffffff">Encrypted at rest · AV scan · full audit log</text>
<rect x="410" y="470" width="300" height="74" rx="9" fill="#fbf5e8" stroke="#8a5a00" stroke-width="2"/>
<text x="560.0" y="499.5" text-anchor="middle" font-family="Segoe UI,Arial,sans-serif" font-size="13" font-weight="700" fill="#233">Dynamic Link service</text>
<text x="560.0" y="516.5" text-anchor="middle" font-family="Segoe UI,Arial,sans-serif" font-size="12" font-weight="400" fill="#233">Time-limited · optional password</text>
<rect x="410" y="610" width="300" height="66" rx="9" fill="#ffffff" stroke="#2e6ca4" stroke-width="2"/>
<text x="560.0" y="635.5" text-anchor="middle" font-family="Segoe UI,Arial,sans-serif" font-size="13" font-weight="700" fill="#233">MFT Web Portal + Add-ins</text>
<text x="560.0" y="652.5" text-anchor="middle" font-family="Segoe UI,Arial,sans-serif" font-size="12" font-weight="400" fill="#233">(Outlook · Salesforce · Office 365)</text>
<rect x="935" y="330" width="245" height="110" rx="9" fill="#ffffff" stroke="#1d7a4d" stroke-width="2"/>
<text x="1057.5" y="377.5" text-anchor="middle" font-family="Segoe UI,Arial,sans-serif" font-size="13" font-weight="700" fill="#233">Agent (account holder)</text>
<text x="1057.5" y="394.5" text-anchor="middle" font-family="Segoe UI,Arial,sans-serif" font-size="12" font-weight="400" fill="#233">Manages files · creates links</text>
<text x="40" y="758" font-size="11.5" font-weight="700" fill="#12123A">Flow:</text>
<line x1="88" y1="754" x2="110" y2="754" stroke="#1d7a4d" stroke-width="3"/>
<text x="116" y="758" font-size="11.5" fill="#233">1 Citizen uploads (Dropbox link)</text>
<line x1="346.0" y1="754" x2="368.0" y2="754" stroke="#8a5a00" stroke-width="3"/>
<text x="374.0" y="758" font-size="11.5" fill="#233">2 Agent creates dynamic link</text>
<line x1="576.0" y1="754" x2="598.0" y2="754" stroke="#8a5a00" stroke-width="3"/>
<text x="604.0" y="758" font-size="11.5" fill="#233">3 Link delivered to citizen</text>
<line x1="799.0" y1="754" x2="821.0" y2="754" stroke="#2e6ca4" stroke-width="3"/>
<text x="827.0" y="758" font-size="11.5" fill="#233">4 Citizen downloads via link</text>
</svg>